<?xml version="1.0" encoding="UTF-8"?>
<svg width="64" height="64" viewBox="0 0 64 64" fill="none" xmlns="http://www.w3.org/2000/svg">
  <!-- Base token shape - made of pixels -->
  <rect x="16" y="8" width="8" height="8" fill="#FFD700"/>
  <rect x="24" y="8" width="16" height="8" fill="#FFD700"/>
  <rect x="40" y="8" width="8" height="8" fill="#FFD700"/>
  
  <rect x="8" y="16" width="8" height="32" fill="#FFD700"/>
  <rect x="48" y="16" width="8" height="32" fill="#FFD700"/>
  
  <rect x="16" y="48" width="8" height="8" fill="#FFD700"/>
  <rect x="24" y="48" width="16" height="8" fill="#FFD700"/>
  <rect x="40" y="48" width="8" height="8" fill="#FFD700"/>
  
  <!-- Inner shadow pixels -->
  <rect x="16" y="16" width="32" height="32" fill="#FFA500"/>
  
  <!-- X symbol in pixels -->
  <rect x="24" y="24" width="8" height="8" fill="#000000"/>
  <rect x="32" y="32" width="8" height="8" fill="#000000"/>
  <rect x="24" y="40" width="8" height="8" fill="#000000"/>
  <rect x="40" y="24" width="8" height="8" fill="#000000"/>
  
  <!-- Shine pixels -->
  <rect x="16" y="16" width="8" height="8" fill="#FFF5CC"/>
  <rect x="24" y="16" width="8" height="8" fill="#FFF5CC" fill-opacity="0.5"/>
</svg> 