<?xml version="1.0" encoding="UTF-8"?>
<svg width="400" height="400" viewBox="0 0 400 400" fill="none" xmlns="http://www.w3.org/2000/svg">
  <!-- Dark background for better contrast -->
  <rect width="400" height="400" fill="#000000" fill-opacity="0.01"/>
  
  <!-- Coin outer glow -->
  <circle cx="200" cy="200" r="160" fill="#FFD700" fill-opacity="0.1"/>
  
  <!-- Base coin shape in original gold - more pixelated -->
  <rect x="150" y="50" width="25" height="25" fill="#FFD700"/>
  <rect x="175" y="50" width="50" height="25" fill="#FFD700"/>
  <rect x="225" y="50" width="25" height="25" fill="#FFD700"/>
  
  <rect x="100" y="75" width="25" height="25" fill="#FFD700"/>
  <rect x="125" y="75" width="25" height="25" fill="#FFD700"/>
  <rect x="250" y="75" width="25" height="25" fill="#FFD700"/>
  <rect x="275" y="75" width="25" height="25" fill="#FFD700"/>
  
  <rect x="75" y="100" width="25" height="200" fill="#FFD700"/>
  <rect x="300" y="100" width="25" height="200" fill="#FFD700"/>
  
  <rect x="100" y="300" width="25" height="25" fill="#FFD700"/>
  <rect x="125" y="300" width="25" height="25" fill="#FFD700"/>
  <rect x="250" y="300" width="25" height="25" fill="#FFD700"/>
  <rect x="275" y="300" width="25" height="25" fill="#FFD700"/>
  
  <rect x="150" y="325" width="25" height="25" fill="#FFD700"/>
  <rect x="175" y="325" width="50" height="25" fill="#FFD700"/>
  <rect x="225" y="325" width="25" height="25" fill="#FFD700"/>
  
  <!-- Main coin face with original orange -->
  <rect x="100" y="100" width="200" height="200" fill="#FFA500"/>
  
  <!-- Pixel detail lines -->
  <rect x="100" y="125" width="200" height="25" fill="#FFD700" fill-opacity="0.3"/>
  <rect x="100" y="175" width="200" height="25" fill="#FFD700" fill-opacity="0.2"/>
  <rect x="100" y="225" width="200" height="25" fill="#FFD700" fill-opacity="0.1"/>
  
  <!-- X symbol in pixels - more detailed -->
  <rect x="150" y="150" width="25" height="25" fill="#000000"/>
  <rect x="175" y="175" width="25" height="25" fill="#000000"/>
  <rect x="200" y="200" width="25" height="25" fill="#000000"/>
  <rect x="225" y="225" width="25" height="25" fill="#000000"/>
  <rect x="150" y="250" width="25" height="25" fill="#000000"/>
  
  <rect x="250" y="150" width="25" height="25" fill="#000000"/>
  <rect x="225" y="175" width="25" height="25" fill="#000000"/>
  <rect x="175" y="225" width="25" height="25" fill="#000000"/>
  <rect x="250" y="250" width="25" height="25" fill="#000000"/>
  
  <!-- Shine pixels -->
  <rect x="100" y="100" width="25" height="25" fill="#FFF5CC"/>
  <rect x="125" y="100" width="25" height="25" fill="#FFF5CC" fill-opacity="0.7"/>
  <rect x="150" y="100" width="25" height="25" fill="#FFF5CC" fill-opacity="0.5"/>
  <rect x="175" y="100" width="25" height="25" fill="#FFF5CC" fill-opacity="0.3"/>
  
  <!-- Edge shine -->
  <rect x="75" y="100" width="25" height="25" fill="#FFF5CC" fill-opacity="0.3"/>
  <rect x="75" y="125" width="25" height="25" fill="#FFF5CC" fill-opacity="0.2"/>
</svg> 